<svg xmlns="http://www.w3.org/2000/svg" xmlns:xlink="http://www.w3.org/1999/xlink" viewBox="0 0 74.375 85" fill="#fff" fill-rule="evenodd" stroke="#000" stroke-linecap="round" stroke-linejoin="round"><use xlink:href="#A" x="2.188" y="2.5"/><symbol id="A" overflow="visible"><path d="M31.842.854a6.27 6.27 0 0 1 6.315 0L67 17.75c1.808 1.056 3.017 3.143 3 5.304V56.95c.014 2.25-1.315 4.387-3.223 5.42l-28.74 16.816c-1.952 1.158-4.494 1.07-6.385-.184l-8.624-5.17c-.587-.363-1.25-.652-1.664-1.242.367-.512 1.022-.576 1.554-.8 1.2-.395 2.3-1.03 3.402-1.646.28-.198.62-.122.886.055l7.357 4.4c.526.315 1.058-.103 1.508-.363L64.3 57.728c.348-.174.54-.557.513-.953l.003-33.547c.04-.45-.2-.862-.602-1.046L35.563 5.44a.97.97 0 0 0-1.125-.002L5.8 22.187c-.4.184-.652.6-.605 1.04v33.55c-.034.395.173.77.52.94l7.65 4.48c1.436.802 3.2 1.278 4.782.664 1.396-.52 2.375-1.997 2.35-3.535l.01-33.35c-.035-.494.417-.9.88-.855l3.674.003c.5-.012.863.52.8 1.017l-.008 33.56c.003 2.98-1.178 6.225-3.837 7.684-3.276 1.76-7.325 1.387-10.56-.3-2.802-1.45-5.475-3.162-8.227-4.715C1.3 61.344-.013 59.2 0 56.95V23.054a6.21 6.21 0 0 1 3.102-5.371L31.842.854zm8.358 23.48c4.18-.28 8.652-.165 12.412 1.97 2.9 1.636 4.525 5.07 4.577 8.424-.08.452-.537.702-.954.67-1.212-.002-2.425.017-3.637-.01-.514.02-.813-.47-.878-.943-.348-1.605-1.192-3.195-2.65-3.97-2.236-1.16-4.83-1.103-7.267-1.078-1.78.098-3.694.258-5.202 1.343-1.158.822-1.5 2.482-1.096 3.82.4.96 1.458 1.27 2.332 1.555 5.036 1.366 10.372 1.23 15.312 3.028 2.045.733 4.046 2.157 4.746 4.378.916 2.976.514 6.534-1.528 8.923-1.656 1.966-4.067 3.036-6.473 3.618-3.2.74-6.52.76-9.77.43-3.056-.36-6.235-1.194-8.594-3.353-2.017-1.816-3.002-4.647-2.905-7.378.023-.46.466-.783.892-.745h3.663c.488-.036.85.4.874.878.225 1.53.78 3.134 2.065 4.04 2.48 1.66 5.595 1.547 8.436 1.593 2.354-.108 4.996-.14 6.917-1.755 1.014-.92 1.314-2.46 1.04-3.785-.297-1.118-1.425-1.64-2.393-1.98-4.97-1.63-10.367-1.04-15.3-2.883-2-.733-3.932-2.118-4.7-4.247-1.07-3.014-.58-6.742 1.675-9.05 2.2-2.296 5.375-3.18 8.393-3.497z" fill="#8cc84b" stroke="none"/></symbol></svg>