<svg xmlns="http://www.w3.org/2000/svg" xmlns:xlink="http://www.w3.org/1999/xlink" viewBox="0 0 66 65" fill="#fff" fill-rule="evenodd" stroke="#000" stroke-linecap="round" stroke-linejoin="round"><use xlink:href="#A" x=".5" y=".5"/><symbol id="A" overflow="visible"><path d="M58.255 3.384a29.5 29.5 0 0 1-3.419 6.064c-8.17-8.203-20.123-11.37-31.283-8.3S3.76 13.092.956 24.324s.66 23.104 9.064 31.067l1.186 1.047a32.08 32.08 0 0 0 52.67-22.253c.875-8.17-1.524-18.5-5.62-30.8zm-43.67 52.193c-.698.863-1.848 1.22-2.912.905s-1.834-1.24-1.95-2.345.445-2.17 1.42-2.698 2.175-.418 3.037.282c1.176.954 1.357 2.68.404 3.857zm43.538-9.6c-7.92 10.55-24.83 7-35.672 7.502 0 0-1.922.113-3.857.43l1.663-.663c7.614-2.65 11.213-3.16 15.838-5.54 8.708-4.427 17.322-14.122 19.112-24.2-3.313 9.695-13.373 18.032-22.53 21.418C26.4 47.237 15.063 49.5 15.063 49.5l-.457-.245c-7.714-3.76-7.95-20.466 6.077-25.856 6.143-2.366 12.02-1.067 18.654-2.65 7.084-1.683 15.28-7 18.615-13.916 3.73 11.08 8.224 28.422.166 39.15z" stroke="none" fill="#68bd45" fill-rule="nonzero"/></symbol></svg>